<svg width="27" height="25" viewBox="0 0 27 25" fill="none" xmlns="http://www.w3.org/2000/svg">
<g clip-path="url(#clip0_7380_607)">
<path d="M19.125 3.12466C19.4205 2.85108 19.7713 2.63406 20.1573 2.48599C20.5434 2.33793 20.9571 2.26172 21.375 2.26172C21.7929 2.26172 22.2066 2.33793 22.5927 2.48599C22.9787 2.63406 23.3295 2.85108 23.625 3.12466C23.9205 3.39825 24.1549 3.72305 24.3148 4.08051C24.4747 4.43796 24.557 4.82109 24.557 5.208C24.557 5.59491 24.4747 5.97803 24.3148 6.33549C24.1549 6.69295 23.9205 7.01774 23.625 7.29133L8.4375 21.3538L2.25 22.9163L3.9375 17.1872L19.125 3.12466Z" stroke="#2C2C2C" stroke-width="4" stroke-linecap="round" stroke-linejoin="round"/>
</g>
<defs>
<clipPath id="clip0_7380_607">
<rect width="27" height="25" fill="white"/>
</clipPath>
</defs>
</svg>
